<svg id="visual" viewBox="0 0 1481 150" width="1481" height="150" xmlns="http://www.w3.org/2000/svg" xmlns:xlink="http://www.w3.org/1999/xlink" version="1.1"><rect x="0" y="0" width="1481" height="150" fill="#ffffff"></rect><path d="M0 109L8 113C16 117 32 125 48 124.7C64 124.3 80 115.7 95.8 114.3C111.7 113 127.3 119 143.2 121.5C159 124 175 123 191 117.3C207 111.7 223 101.3 239 103.8C255 106.3 271 121.7 286.8 127.7C302.7 133.7 318.3 130.3 334.2 125.3C350 120.3 366 113.7 382 110.2C398 106.7 414 106.3 430 108C446 109.7 462 113.3 478 117.3C494 121.3 510 125.7 525.8 126.3C541.7 127 557.3 124 573.2 121.2C589 118.3 605 115.7 621 109.8C637 104 653 95 669 93.8C685 92.7 701 99.3 716.8 104.8C732.7 110.3 748.3 114.7 764.2 114.8C780 115 796 111 812 109.3C828 107.7 844 108.3 860 110C876 111.7 892 114.3 907.8 117.2C923.7 120 939.3 123 955.2 124C971 125 987 124 1003 125.8C1019 127.7 1035 132.3 1051 131.3C1067 130.3 1083 123.7 1099 122.3C1115 121 1131 125 1146.8 121C1162.7 117 1178.3 105 1194.2 103.3C1210 101.7 1226 110.3 1242 115C1258 119.7 1274 120.3 1290 120.3C1306 120.3 1322 119.7 1337.8 114.7C1353.7 109.7 1369.3 100.3 1385.2 100.7C1401 101 1417 111 1433 114.7C1449 118.3 1465 115.7 1473 114.3L1481 113L1481 151L1473 151C1465 151 1449 151 1433 151C1417 151 1401 151 1385.2 151C1369.3 151 1353.7 151 1337.8 151C1322 151 1306 151 1290 151C1274 151 1258 151 1242 151C1226 151 1210 151 1194.2 151C1178.3 151 1162.7 151 1146.8 151C1131 151 1115 151 1099 151C1083 151 1067 151 1051 151C1035 151 1019 151 1003 151C987 151 971 151 955.2 151C939.3 151 923.7 151 907.8 151C892 151 876 151 860 151C844 151 828 151 812 151C796 151 780 151 764.2 151C748.3 151 732.7 151 716.8 151C701 151 685 151 669 151C653 151 637 151 621 151C605 151 589 151 573.2 151C557.3 151 541.7 151 525.8 151C510 151 494 151 478 151C462 151 446 151 430 151C414 151 398 151 382 151C366 151 350 151 334.2 151C318.3 151 302.7 151 286.8 151C271 151 255 151 239 151C223 151 207 151 191 151C175 151 159 151 143.2 151C127.3 151 111.7 151 95.8 151C80 151 64 151 48 151C32 151 16 151 8 151L0 151Z" fill="#B18F6A" stroke-linecap="round" stroke-linejoin="miter"></path></svg>