<svg id="visual" viewBox="0 0 1866 150" width="1866" height="150" xmlns="http://www.w3.org/2000/svg" xmlns:xlink="http://www.w3.org/1999/xlink" version="1.1"><rect x="0" y="0" width="1866" height="150" fill="#ffffff"></rect><path d="M0 89L16.3 91C32.7 93 65.3 97 98 94.8C130.7 92.7 163.3 84.3 196.2 86.3C229 88.3 262 100.7 294.8 100.5C327.7 100.3 360.3 87.7 393 89.5C425.7 91.3 458.3 107.7 491 107.7C523.7 107.7 556.3 91.3 589 81.3C621.7 71.3 654.3 67.7 687.2 71C720 74.3 753 84.7 785.8 95.7C818.7 106.7 851.3 118.3 884 113.2C916.7 108 949.3 86 982 77.5C1014.7 69 1047.3 74 1080.2 85.5C1113 97 1146 115 1178.8 112.7C1211.7 110.3 1244.3 87.7 1277 82.8C1309.7 78 1342.3 91 1375 100.7C1407.7 110.3 1440.3 116.7 1473 109.3C1505.7 102 1538.3 81 1571.2 76.2C1604 71.3 1637 82.7 1669.8 94C1702.7 105.3 1735.3 116.7 1768 111.3C1800.7 106 1833.3 84 1849.7 73L1866 62L1866 151L1849.7 151C1833.3 151 1800.7 151 1768 151C1735.3 151 1702.7 151 1669.8 151C1637 151 1604 151 1571.2 151C1538.3 151 1505.7 151 1473 151C1440.3 151 1407.7 151 1375 151C1342.3 151 1309.7 151 1277 151C1244.3 151 1211.7 151 1178.8 151C1146 151 1113 151 1080.2 151C1047.3 151 1014.7 151 982 151C949.3 151 916.7 151 884 151C851.3 151 818.7 151 785.8 151C753 151 720 151 687.2 151C654.3 151 621.7 151 589 151C556.3 151 523.7 151 491 151C458.3 151 425.7 151 393 151C360.3 151 327.7 151 294.8 151C262 151 229 151 196.2 151C163.3 151 130.7 151 98 151C65.3 151 32.7 151 16.3 151L0 151Z" fill="#B18F6A" stroke-linecap="round" stroke-linejoin="miter"></path></svg>