<svg id="visual" viewBox="0 0 1495 150" width="1495" height="150" xmlns="http://www.w3.org/2000/svg" xmlns:xlink="http://www.w3.org/1999/xlink" version="1.1"><rect x="0" y="0" width="1495" height="150" fill="#ffffff"></rect><path d="M0 96L13.8 101.2C27.7 106.3 55.3 116.7 83 121C110.7 125.3 138.3 123.7 166 121.5C193.7 119.3 221.3 116.7 249 116.3C276.7 116 304.3 118 332 115.3C359.7 112.7 387.3 105.3 415 102.2C442.7 99 470.3 100 498 104.7C525.7 109.3 553.3 117.7 581 119.3C608.7 121 636.3 116 664.2 115.2C692 114.3 720 117.7 747.8 120.3C775.7 123 803.3 125 831 123.3C858.7 121.7 886.3 116.3 914 115.5C941.7 114.7 969.3 118.3 997 118C1024.7 117.7 1052.3 113.3 1080 109C1107.7 104.7 1135.3 100.3 1163 100.2C1190.7 100 1218.3 104 1246 107C1273.7 110 1301.3 112 1329 113.2C1356.7 114.3 1384.3 114.7 1412 113C1439.7 111.3 1467.3 107.7 1481.2 105.8L1495 104L1495 151L1481.2 151C1467.3 151 1439.7 151 1412 151C1384.3 151 1356.7 151 1329 151C1301.3 151 1273.7 151 1246 151C1218.3 151 1190.7 151 1163 151C1135.3 151 1107.7 151 1080 151C1052.3 151 1024.7 151 997 151C969.3 151 941.7 151 914 151C886.3 151 858.7 151 831 151C803.3 151 775.7 151 747.8 151C720 151 692 151 664.2 151C636.3 151 608.7 151 581 151C553.3 151 525.7 151 498 151C470.3 151 442.7 151 415 151C387.3 151 359.7 151 332 151C304.3 151 276.7 151 249 151C221.3 151 193.7 151 166 151C138.3 151 110.7 151 83 151C55.3 151 27.7 151 13.8 151L0 151Z" fill="#B18F6A" stroke-linecap="round" stroke-linejoin="miter"></path></svg>